<?xml version="1.0" encoding="UTF-8"?>
<svg version="1.1" xmlns="http://www.w3.org/2000/svg" width="360" height="360">
<path d="M0 0 C8.1148993 5.90174494 12.2299006 14.13811657 16.89453125 22.77734375 C19.96620145 28.44970194 23.22785119 34.0041001 26.5 39.5625 C31.38460026 47.8770953 36.13975747 56.25219639 40.8125 64.6875 C45.76944546 73.62377885 50.976697 82.35741942 56.4050293 91.0144043 C60.090081 96.89777798 63.52899981 102.84911042 66.75 109 C67.67619141 110.68416016 67.67619141 110.68416016 68.62109375 112.40234375 C68.94352051 112.98951172 69.26594727 113.57667969 69.59814453 114.18164062 C70.50844911 115.83908633 71.42019484 117.49574029 72.33203125 119.15234375 C75.50105171 125.51657492 75.43407701 132.19957216 74.1875 139.125 C70.78085183 145.93829634 65.07247713 151.96656928 57.87890625 154.71484375 C51.4446965 156.63381859 45.82560084 156.09852637 39.6875 153.4375 C30.40408102 148.19655097 25.92450612 138.39919174 21.125 129.3125 C20.15938336 127.48853055 19.19058547 125.66668259 18.21060181 123.85038757 C17.32629978 122.21126556 16.45449038 120.56542151 15.58349609 118.91918945 C13.61277217 115.78151356 11.53316582 113.43980999 8.75 111 C4.92872513 110.6448174 1.40469331 111.91472305 -2.25 113 C-3.26578125 113.30164063 -4.2815625 113.60328125 -5.328125 113.9140625 C-21.75059568 119.53653399 -34.21672207 130.25617914 -44.5703125 143.92578125 C-48.64316827 148.95528454 -53.77959017 153.58827422 -60.25 155 C-69.93300528 155.88250175 -76.81368399 154.935191 -84.5 148.75 C-88.13193016 145.43419529 -89.73024165 142.64867259 -91.25 138 C-91.58 137.01 -91.91 136.02 -92.25 135 C-92.453125 133.01953125 -92.453125 133.01953125 -92.5 130.8125 C-92.52578125 130.09707031 -92.5515625 129.38164062 -92.578125 128.64453125 C-91.60609817 120.81045784 -87.17339892 113.80276468 -83.4375 107 C-82.86708984 105.95473145 -82.29667969 104.90946289 -81.70898438 103.83251953 C-75.4457382 92.42446401 -68.87539404 81.200387 -62.25 70 C-61.19134393 68.20706805 -60.13274859 66.41410023 -59.07421875 64.62109375 C-57.50631074 61.96656518 -55.93753749 59.31256329 -54.36645508 56.65991211 C-51.2085721 51.32618527 -48.06615425 45.98371636 -44.9375 40.6328125 C-44.56494583 39.99593002 -44.19239166 39.35904755 -43.80854797 38.7028656 C-41.98275098 35.58137982 -40.15844663 32.45903884 -38.33666992 29.33520508 C-36.32048601 25.88257323 -34.28939744 22.43898392 -32.25 19 C-31.89598114 18.40290222 -31.54196228 17.80580444 -31.17721558 17.19061279 C-30.11728894 15.41054732 -29.0484863 13.63614291 -27.9765625 11.86328125 C-27.03997803 10.30734253 -27.03997803 10.30734253 -26.08447266 8.7199707 C-19.77553881 -0.63427896 -10.71508602 -3.29694954 0 0 Z " fill="#1F70DE" transform="translate(188.25,103)"/>
<path d="M0 0 C8.1148993 5.90174494 12.2299006 14.13811657 16.89453125 22.77734375 C19.96620145 28.44970194 23.22785119 34.0041001 26.5 39.5625 C31.38460026 47.8770953 36.13975747 56.25219639 40.8125 64.6875 C45.76944546 73.62377885 50.976697 82.35741942 56.4050293 91.0144043 C59.57846604 96.0809585 62.64449659 101.16049346 65.41015625 106.46484375 C66.43273293 108.39969 67.51423566 110.30350841 68.62109375 112.19140625 C72.46139402 118.85977473 74.8728322 124.22647636 74.75 132 C69.60875768 129.17735716 64.92061927 126.39516609 60.9375 122 C55.28757686 116.83435599 47.95540712 115.03800541 40.75 113 C30.765625 110.015625 30.765625 110.015625 27.75 107 C27.42 106.01 27.09 105.02 26.75 104 C24.74983534 102.79117904 24.74983534 102.79117904 22.75 102 C22.75 101.01 22.75 100.02 22.75 99 C21.76 98.67 20.77 98.34 19.75 98 C19.75 97.01 19.75 96.02 19.75 95 C19.04875 94.46375 18.3475 93.9275 17.625 93.375 C14.9140848 91.13554832 13.59913931 89.42221496 11.75 86.5 C9.45379029 82.89335699 7.22877225 80.53856353 3.75 78 C2.73199424 76.68036291 1.72751635 75.34990354 0.75 74 C-0.24 73.505 -0.24 73.505 -1.25 73 C-2.25 71.33333333 -3.25 69.66666667 -4.25 68 C-5.24 67.505 -5.24 67.505 -6.25 67 C-7.52536232 61.55072464 -7.52536232 61.55072464 -6.25 59 C-7.735 58.505 -7.735 58.505 -9.25 58 C-10.6796875 56.58203125 -10.6796875 56.58203125 -12.125 54.8125 C-12.64320313 54.18730469 -13.16140625 53.56210938 -13.6953125 52.91796875 C-14.20835937 52.28503906 -14.72140625 51.65210938 -15.25 51 C-18.27734111 46.95235169 -18.27734111 46.95235169 -22.25 44 C-22.641875 43.0925 -23.03375 42.185 -23.4375 41.25 C-25.45784152 37.62731865 -27.30144342 36.24592189 -30.7265625 34.078125 C-32.25 33 -32.25 33 -33.25 31 C-34.57 31 -35.89 31 -37.25 31 C-37.25 25.96084442 -34.1933825 22.05528696 -31.75 17.75 C-31.2446875 16.82058594 -30.739375 15.89117187 -30.21875 14.93359375 C-23.3292884 2.75647038 -14.45717386 -4.44836119 0 0 Z " fill="#16B2CD" transform="translate(188.25,103)"/>
<path d="M0 0 C0.70125 0.763125 1.4025 1.52625 2.125 2.3125 C4.83071812 5.11068316 4.83071812 5.11068316 8.125 6.5 C11 8 11 8 12.375 10.625 C13.72898 13.15113616 13.72898 13.15113616 15.95703125 13.54296875 C17.9625174 13.78531296 19.98236296 13.90077195 22 14 C22.495 15.98 22.495 15.98 23 18 C23.66 18 24.32 18 25 18 C25 18.66 25 19.32 25 20 C25.928125 20.433125 25.928125 20.433125 26.875 20.875 C29 22 29 22 31 24 C32.31747324 24.69748583 33.64914193 25.36959957 35 26 C35 27.32 35 28.64 35 30 C35.64663567 32.7004039 35.64663567 32.7004039 37 35 C39.04105639 35.88693303 39.04105639 35.88693303 41 36 C41 40 41 40 39.49609375 41.640625 C38.81675781 42.17171875 38.13742188 42.7028125 37.4375 43.25 C32.43021032 47.38454025 28.37128372 52.07649953 24.2890625 57.109375 C19.69020674 62.64464935 14.90114376 66.69961875 8 69 C-1.71057638 69.68236483 -8.52294928 68.96797029 -16.25 62.75 C-19.88193016 59.43419529 -21.48024165 56.64867259 -23 52 C-23.495 50.515 -23.495 50.515 -24 49 C-24.203125 47.01953125 -24.203125 47.01953125 -24.25 44.8125 C-24.27578125 44.09707031 -24.3015625 43.38164062 -24.328125 42.64453125 C-23.30901701 34.43100614 -18.5311111 26.92241391 -14.6875 19.75 C-14.13126953 18.67492187 -13.57503906 17.59984375 -13.00195312 16.4921875 C-10.00244596 10.89124513 -7.79623105 6.84111779 -2 4 C-1.34 4.33 -0.68 4.66 0 5 C-0.185625 4.360625 -0.37125 3.72125 -0.5625 3.0625 C-0.706875 2.381875 -0.85125 1.70125 -1 1 C-0.67 0.67 -0.34 0.34 0 0 Z " fill="#3105F5" transform="translate(120,189)"/>
<path d="M0 0 C0.61875 0.804375 1.2375 1.60875 1.875 2.4375 C3.74164041 5.03874519 3.74164041 5.03874519 6 6 C6.625 8.5625 6.625 8.5625 7 11 C8.65 11 10.3 11 12 11 C12.20625 12.0725 12.4125 13.145 12.625 14.25 C14.29584137 18.80684011 15.92740143 19.55644086 20 22 C22.79084996 25.01713509 24.02289905 27.09159621 25 31 C25.99 31.33 26.98 31.66 28 32 C28 32.66 28 33.32 28 34 C28.99 34.33 29.98 34.66 31 35 C31.33 35.99 31.66 36.98 32 38 C32.99 38.33 33.98 38.66 35 39 C36.5 40.890625 36.5 40.890625 38 43.25 C38.78503906 44.46816406 38.78503906 44.46816406 39.5859375 45.7109375 C40.63563633 47.41017372 41.64220615 49.13621088 42.625 50.875 C44.13383657 53.20683834 45.77181135 54.38648408 48 56 C48 56.66 48 57.32 48 58 C48.99 58.33 49.98 58.66 51 59 C54.4937178 62.93043252 57.33227554 66.99682661 59 72 C59.99 72 60.98 72 62 72 C62.5775 73.0725 63.155 74.145 63.75 75.25 C65.52042804 78.34053814 67.39684679 80.54559841 70 83 C71.75589639 85.05197259 73.49366552 87.11736983 75.21875 89.1953125 C77.04171933 91.04226826 78.62748427 91.99064024 81 93 C80.34 93.99 79.68 94.98 79 96 C79.30840599 98.15274948 79.30840599 98.15274948 80 100 C80.61875 100.12375 81.2375 100.2475 81.875 100.375 C84 101 84 101 86 103 C86 104.32 86 105.64 86 107 C87.36125 107.0928125 87.36125 107.0928125 88.75 107.1875 C92.77853569 108.19463392 93.61900194 109.71586474 96 113 C97.485 113.495 97.485 113.495 99 114 C99 115.32 99 116.64 99 118 C99.66 118 100.32 118 101 118 C101.33 117.34 101.66 116.68 102 116 C102 117.98 102 119.96 102 122 C96.85875768 119.17735716 92.17061927 116.39516609 88.1875 112 C82.53757686 106.83435599 75.20540712 105.03800541 68 103 C58.015625 100.015625 58.015625 100.015625 55 97 C54.67 96.01 54.34 95.02 54 94 C51.99983534 92.79117904 51.99983534 92.79117904 50 92 C50 91.01 50 90.02 50 89 C49.01 88.67 48.02 88.34 47 88 C47 87.01 47 86.02 47 85 C46.29875 84.46375 45.5975 83.9275 44.875 83.375 C42.1640848 81.13554832 40.84913931 79.42221496 39 76.5 C36.70379029 72.89335699 34.47877225 70.53856353 31 68 C29.98199424 66.68036291 28.97751635 65.34990354 28 64 C27.01 63.505 27.01 63.505 26 63 C25 61.33333333 24 59.66666667 23 58 C22.01 57.505 22.01 57.505 21 57 C19.72463768 51.55072464 19.72463768 51.55072464 21 49 C19.515 48.505 19.515 48.505 18 48 C16.5703125 46.58203125 16.5703125 46.58203125 15.125 44.8125 C14.60679687 44.18730469 14.08859375 43.56210938 13.5546875 42.91796875 C13.04164063 42.28503906 12.52859375 41.65210938 12 41 C8.97265889 36.95235169 8.97265889 36.95235169 5 34 C4.608125 33.0925 4.21625 32.185 3.8125 31.25 C1.79215848 27.62731865 -0.05144342 26.24592189 -3.4765625 24.078125 C-5 23 -5 23 -6 21 C-7.32 21 -8.64 21 -10 21 C-10 17.68930999 -9.41483015 16.59363813 -7.8125 13.76953125 C-7.36132812 12.96708984 -6.91015625 12.16464844 -6.4453125 11.33789062 C-5.96835938 10.50451172 -5.49140625 9.67113281 -5 8.8125 C-4.52304688 7.96751953 -4.04609375 7.12253906 -3.5546875 6.25195312 C-2.3754381 4.16468168 -1.19037503 2.08094018 0 0 Z " fill="#1998D5" transform="translate(161,113)"/>
<path d="M0 0 C0.66 0.33 1.32 0.66 2 1 C2.268125 2.134375 2.53625 3.26875 2.8125 4.4375 C3.204375 5.613125 3.59625 6.78875 4 8 C5.64363134 8.72159424 7.31050386 9.39351421 9 10 C9.75 12.375 9.75 12.375 10 15 C10.32483418 16.33542939 10.6550855 17.66961551 11 19 C11.763125 18.896875 12.52625 18.79375 13.3125 18.6875 C14.199375 18.790625 15.08625 18.89375 16 19 C17.8125 21.5 17.8125 21.5 19 24 C23.37859255 23.49477778 25.81651224 20.82172778 29 18 C31.4375 19.1875 31.4375 19.1875 34 21 C34.2475 22.2684375 34.2475 22.2684375 34.5 23.5625 C34.7475 24.7690625 34.7475 24.7690625 35 26 C37.47636012 27.37466625 37.47636012 27.37466625 40 28 C40 28.66 40 29.32 40 30 C40.99 30.33 41.98 30.66 43 31 C43.309375 31.825 43.61875 32.65 43.9375 33.5 C44.288125 34.325 44.63875 35.15 45 36 C46.33076989 36.34342449 47.66431979 36.67619874 49 37 C50.87276598 39.63574472 51.97664169 41.92992508 53 45 C52.505 45.99 52.505 45.99 52 47 C53.32 47 54.64 47 56 47 C55.37109375 49.84765625 55.37109375 49.84765625 54 53 C51.34765625 54.43359375 51.34765625 54.43359375 48.0625 55.4375 C41.32475 57.73343708 35.8235619 60.95034874 30 65 C29.67 64.01 29.34 63.02 29 62 C27.35 62 25.7 62 24 62 C23.87625 61.34773438 23.7525 60.69546875 23.625 60.0234375 C22.10984596 53.60297227 20.27448964 50.64580979 14.64453125 47.15625 C14.10183594 46.7746875 13.55914062 46.393125 13 46 C13 45.34 13 44.68 13 44 C12.34 44 11.68 44 11 44 C10.67 43.01 10.34 42.02 10 41 C8.7625 40.95875 7.525 40.9175 6.25 40.875 C4.0390625 40.62109375 4.0390625 40.62109375 2 40 C-0.375 36.9375 -0.375 36.9375 -2 34 C-2.66 34 -3.32 34 -4 34 C-4 33.34 -4 32.68 -4 32 C-5.485 32.495 -5.485 32.495 -7 33 C-7.0825 32.38125 -7.165 31.7625 -7.25 31.125 C-7.81258459 28.81562433 -7.81258459 28.81562433 -10.0625 27.75 C-10.701875 27.5025 -11.34125 27.255 -12 27 C-11.67 28.65 -11.34 30.3 -11 32 C-11.8971875 31.690625 -11.8971875 31.690625 -12.8125 31.375 C-15.28450846 30.69328085 -15.28450846 30.69328085 -18 33 C-16.50352884 27.71246857 -14.07075321 23.4094008 -11.25 18.75 C-10.80479004 18.00435791 -10.35958008 17.25871582 -9.90087891 16.49047852 C-8.60580511 14.32380173 -7.30347837 12.16162743 -6 10 C-5.01386719 8.35064453 -5.01386719 8.35064453 -4.0078125 6.66796875 C-2.67684295 4.4422565 -1.34145616 2.21940105 0 0 Z " fill="#292AE2" transform="translate(132,163)"/>
<path d="M0 0 C39.75053708 -0.46461667 39.75053708 -0.46461667 53.6875 12.5 C54.450625 13.325 55.21375 14.15 56 15 C57.4568701 15.91899042 58.91530991 16.83549536 60.375 17.75 C62.62176955 19.42758793 63.79915507 20.32619765 64.60546875 23.03125 C64.48173271 29.4205294 60.77407659 33.44400818 56.46484375 37.828125 C50.76746389 42.84832025 44.66361572 45.31333352 37 45 C30.44407114 43.85408975 25.3253527 41.04624482 21 36 C15.0150748 27.4752536 10.20429933 18.09086427 5.19921875 8.96875 C3.53171141 5.9371775 1.80879922 2.95027445 0 0 Z " fill="#AB02F9" transform="translate(199,214)"/>
<path d="M0 0 C0.99 0.33 1.98 0.66 3 1 C3.6875 3.0625 3.6875 3.0625 4 5 C4.763125 4.896875 5.52625 4.79375 6.3125 4.6875 C7.199375 4.790625 8.08625 4.89375 9 5 C10.8125 7.5 10.8125 7.5 12 10 C16.37859255 9.49477778 18.81651224 6.82172778 22 4 C24.4375 5.1875 24.4375 5.1875 27 7 C27.2475 8.2684375 27.2475 8.2684375 27.5 9.5625 C27.7475 10.7690625 27.7475 10.7690625 28 12 C30.47636012 13.37466625 30.47636012 13.37466625 33 14 C33 14.66 33 15.32 33 16 C33.99 16.33 34.98 16.66 36 17 C36.309375 17.825 36.61875 18.65 36.9375 19.5 C37.288125 20.325 37.63875 21.15 38 22 C39.33076989 22.34342449 40.66431979 22.67619874 42 23 C43.87276598 25.63574472 44.97664169 27.92992508 46 31 C45.67 31.66 45.34 32.32 45 33 C46.32 33 47.64 33 49 33 C48.39453125 35.82421875 48.39453125 35.82421875 47 39 C44.13671875 40.64453125 44.13671875 40.64453125 40.6875 41.8125 C39.55699219 42.21082031 38.42648438 42.60914063 37.26171875 43.01953125 C31.47527289 44.75892994 31.47527289 44.75892994 29 45 C26.375 42.6875 26.375 42.6875 24 40 C23.01 39.34 22.02 38.68 21 38 C20.87625 37.401875 20.7525 36.80375 20.625 36.1875 C20.10218737 33.68736736 20.10218737 33.68736736 17.4375 31.4375 C16.633125 30.633125 15.82875 29.82875 15 29 C15 28.01 15 27.02 15 26 C14.34 26 13.68 26 13 26 C13 25.34 13 24.68 13 24 C11.02 23.34 9.04 22.68 7 22 C7 20.68 7 19.36 7 18 C7.66 18 8.32 18 9 18 C9.66 16.35 10.32 14.7 11 13 C10.34 13 9.68 13 9 13 C8.566875 12.2575 8.13375 11.515 7.6875 10.75 C6.1318385 7.858007 6.1318385 7.858007 3.375 5.9375 C0.89410371 3.91361092 0.33304577 3.10842723 0 0 Z " fill="#2543E7" transform="translate(139,177)"/>
<path d="M0 0 C3.96261868 2.28130793 6.80243919 4.7244499 10 8 C11.03396131 8.84287479 12.07579412 9.67617908 13.125 10.5 C15.94814516 12.95490883 17.1475527 14.81379065 19 18 C20.85823732 20.01411595 22.74195246 21.99188703 24.671875 23.9375 C26 26 26 26 25.875 28.59375 C24.79962914 31.55101985 23.08524241 32.86305255 20.62109375 34.7421875 C17.5735043 37.10682317 14.90341081 39.91590703 12.4375 42.875 C11 44 11 44 8.9375 44 C7 43 7 43 5.75 40.4375 C5.5025 39.633125 5.255 38.82875 5 38 C3.8553125 38.1546875 3.8553125 38.1546875 2.6875 38.3125 C1.800625 38.209375 0.91375 38.10625 0 38 C-2.24243223 35.13896577 -3 33.65923696 -3 30 C-3.969375 29.46375 -4.93875 28.9275 -5.9375 28.375 C-9.47957041 25.62808826 -9.47957041 25.62808826 -10 21.91796875 C-10.45518838 16.19790232 -8.13077075 12.5867655 -5.0625 7.9375 C-4.34030273 6.78217773 -4.34030273 6.78217773 -3.60351562 5.60351562 C-2.42273246 3.72127711 -1.22219745 1.85550342 0 0 Z " fill="#2255D4" transform="translate(143,144)"/>
<path d="M0 0 C35.88310595 -0.41941293 35.88310595 -0.41941293 51 10 C52.80339911 11.96370126 53.79832012 13.59664023 55 16 C54.0409375 15.690625 54.0409375 15.690625 53.0625 15.375 C47.5983209 14.70591685 42.55877695 15.96081537 38 19 C35.625 19.37890625 35.625 19.37890625 33 19.5625 C30.04658849 19.77785292 27.8317192 20.0560936 25 21 C24.236875 21.12375 23.47375 21.2475 22.6875 21.375 C19.49254526 22.11801273 16.90657987 23.5006057 14 25 C13.68248779 24.42032471 13.36497559 23.84064941 13.0378418 23.2434082 C11.5887521 20.59920934 10.13814036 17.95584844 8.6875 15.3125 C8.18798828 14.40048828 7.68847656 13.48847656 7.17382812 12.54882812 C6.68720703 11.66259766 6.20058594 10.77636719 5.69921875 9.86328125 C5.25408936 9.05157471 4.80895996 8.23986816 4.3503418 7.40356445 C2.947094 4.90582904 1.48512317 2.44978598 0 0 Z " fill="#6D00F8" transform="translate(199,214)"/>
<path d="M0 0 C0.15082031 0.61617188 0.30164063 1.23234375 0.45703125 1.8671875 C1.06917558 4.27172565 1.56872961 5.95532801 3 8 C6.04199472 9.29231642 6.04199472 9.29231642 9 10 C9 10.66 9 11.32 9 12 C6.03 11.505 6.03 11.505 3 11 C4.051875 11.556875 5.10375 12.11375 6.1875 12.6875 C9.68686633 14.67000391 12.19178026 17.11588242 15 20 C17.16620544 21.29519995 17.16620544 21.29519995 19 22 C18.67 23.32 18.34 24.64 18 26 C18.99 26.33 19.98 26.66 21 27 C22.33333333 28.66666667 23.66666667 30.33333333 25 32 C25.99 32.33 26.98 32.66 28 33 C28.495 35.97 28.495 35.97 29 39 C29.99 39.33 30.98 39.66 32 40 C32.495 43.465 32.495 43.465 33 47 C33.99 47 34.98 47 36 47 C36.226875 47.886875 36.45375 48.77375 36.6875 49.6875 C38.2187869 53.55217646 39.97044228 55.17241279 43 58 C44.2453554 59.33929384 45.4737478 60.69450013 46.6875 62.0625 C47.26886719 62.71347656 47.85023438 63.36445313 48.44921875 64.03515625 C50 66 50 66 51.03515625 68.109375 C52.2897476 70.56776452 54.20383677 71.75702652 56.3359375 73.4375 C59.52471396 76.4316563 61.88782811 80.18760464 64 84 C64 84.66 64 85.32 64 86 C66.64 86 69.28 86 72 86 C71.01 87.65 70.02 89.3 69 91 C69.78375 90.896875 70.5675 90.79375 71.375 90.6875 C76.56630359 91.13502617 80.49132264 93.50507972 85 96 C82.29606768 97.35196616 81.28218182 96.65816133 78.4375 95.75 C77.54675781 95.46640625 76.65601563 95.1828125 75.73828125 94.890625 C74.83464844 94.59671875 73.93101562 94.3028125 73 94 C72.16855469 93.74734375 71.33710938 93.4946875 70.48046875 93.234375 C62.85783133 90.85783133 62.85783133 90.85783133 60 88 C59.67 87.01 59.34 86.02 59 85 C56.99983534 83.79117904 56.99983534 83.79117904 55 83 C55 82.01 55 81.02 55 80 C54.01 79.67 53.02 79.34 52 79 C52 78.01 52 77.02 52 76 C51.29875 75.46375 50.5975 74.9275 49.875 74.375 C47.1640848 72.13554832 45.84913931 70.42221496 44 67.5 C41.70379029 63.89335699 39.47877225 61.53856353 36 59 C34.98199424 57.68036291 33.97751635 56.34990354 33 55 C32.01 54.505 32.01 54.505 31 54 C30 52.33333333 29 50.66666667 28 49 C27.01 48.505 27.01 48.505 26 48 C24.72463768 42.55072464 24.72463768 42.55072464 26 40 C24.515 39.505 24.515 39.505 23 39 C21.5703125 37.58203125 21.5703125 37.58203125 20.125 35.8125 C19.60679687 35.18730469 19.08859375 34.56210938 18.5546875 33.91796875 C18.04164063 33.28503906 17.52859375 32.65210938 17 32 C13.97265889 27.95235169 13.97265889 27.95235169 10 25 C9.608125 24.0925 9.21625 23.185 8.8125 22.25 C6.79215848 18.62731865 4.94855658 17.24592189 1.5234375 15.078125 C0 14 0 14 -1 12 C-2.32 12 -3.64 12 -5 12 C-5 8.55639368 -4.20408468 7.25204608 -2.5 4.3125 C-2.0359375 3.50425781 -1.571875 2.69601563 -1.09375 1.86328125 C-0.7328125 1.24839844 -0.371875 0.63351563 0 0 Z " fill="#1E85D7" transform="translate(156,122)"/>
<path d="M0 0 C-0.66 0.33 -1.32 0.66 -2 1 C-2.99 0.67 -3.98 0.34 -5 0 C-4.505 1.485 -4.505 1.485 -4 3 C-4.66 3.66 -5.32 4.32 -6 5 C-6.12375 4.360625 -6.2475 3.72125 -6.375 3.0625 C-6.58125 2.381875 -6.7875 1.70125 -7 1 C-7.66 0.67 -8.32 0.34 -9 0 C-9 0.66 -9 1.32 -9 2 C-10.98 1.67 -12.96 1.34 -15 1 C-14.505 2.98 -14.505 2.98 -14 5 C-14.99 5 -15.98 5 -17 5 C-17 5.66 -17 6.32 -17 7 C-18.625 8.75 -18.625 8.75 -21 10 C-24.49900021 9.23021995 -26.456333 8.543667 -29 6 C-29 6.66 -29 7.32 -29 8 C-32.78427644 9.83807713 -34.95288854 10.2031953 -39 9 C-39.66 8.67 -40.32 8.34 -41 8 C-41.33 8.99 -41.66 9.98 -42 11 C-43.32 11 -44.64 11 -46 11 C-47.92976245 8.60443282 -48.97110222 6.98252454 -49.0625 3.875 C-47.36015135 0.87085533 -45.17260357 0.15922054 -42 -1 C-39.125 -0.6875 -39.125 -0.6875 -37 0 C-36.67 -0.66 -36.34 -1.32 -36 -2 C-33.92578125 -2.30859375 -33.92578125 -2.30859375 -31.3125 -2.4375 C-26.86464443 -2.78548301 -23.94077819 -3.85048463 -20 -6 C-11.82109113 -8.26225139 -6.2850866 -4.87414879 0 0 Z " fill="#8300F9" transform="translate(263,235)"/>
<path d="M0 0 C18.36453111 -0.21465036 35.06145039 -0.38464484 51 10 C51.495 10.99 51.495 10.99 52 12 C49.17010623 11.07863924 46.38194319 10.16495885 43.6484375 8.984375 C37.20270276 6.58861518 30.31975715 6.10003985 23.875 8.625 C22.2355048 9.3861942 20.61059013 10.17941452 19 11 C18.0615625 11.45632812 17.123125 11.91265625 16.15625 12.3828125 C13.75630353 13.56256146 11.37336612 14.7678695 9 16 C7.68684387 13.70870707 6.37444807 11.4169845 5.0625 9.125 C4.50272461 8.14853516 4.50272461 8.14853516 3.93164062 7.15234375 C1.11328125 2.2265625 1.11328125 2.2265625 0 0 Z " fill="#4700FA" transform="translate(199,214)"/>
<path d="M0 0 C3 1 3 1 4 2 C4 1.34 4 0.68 4 0 C6.475 0.495 6.475 0.495 9 1 C8.66290194 7.51722911 7.55774263 10.32539218 3 15 C3 12.37886292 3.31292445 10.49064888 4 8 C3.34 8 2.68 8 2 8 C1.505 7.505 1.505 7.505 1 7 C0.67 7.66 0.34 8.32 0 9 C-3.875 8.125 -3.875 8.125 -5 7 C-5.515625 7.66 -6.03125 8.32 -6.5625 9 C-9.83983768 11.68909758 -11.80900934 11 -16 11 C-19.17133273 12.00929329 -22.19401953 13.19959623 -25 15 C-26.33333333 18 -26.33333333 18 -25 21 C-30.29158974 19.59928507 -32.77478044 16.14512755 -36 12 C-34.4375 9.9375 -34.4375 9.9375 -32 8 C-28.5625 8.3125 -28.5625 8.3125 -25 9 C-22.18762459 8.64025105 -22.18762459 8.64025105 -20 8 C-20 7.34 -20 6.68 -20 6 C-17.72605639 6.48727363 -16.01387473 6.99176188 -14 8.1875 C-11.96255418 9.28184301 -11.96255418 9.28184301 -9.75 8.125 C-9.1725 7.75375 -8.595 7.3825 -8 7 C-8 6.34 -8 5.68 -8 5 C-7.01 5 -6.02 5 -5 5 C-5.33 3.68 -5.66 2.36 -6 1 C-3.03 1.495 -3.03 1.495 0 2 C0 1.34 0 0.68 0 0 Z " fill="#9A04F8" transform="translate(254,235)"/>
<path d="M0 0 C0.99 0.33 1.98 0.66 3 1 C3 2.32 3 3.64 3 5 C3.61875 5.12375 4.2375 5.2475 4.875 5.375 C7 6 7 6 9 8 C9 8.99 9 9.98 9 11 C10.32 11.33 11.64 11.66 13 12 C13 12.66 13 13.32 13 14 C14.32 14.33 15.64 14.66 17 15 C17 15.99 17 16.98 17 18 C17.66 18.33 18.32 18.66 19 19 C19 19.99 19 20.98 19 22 C15.75 22.375 15.75 22.375 12 22 C9.6875 19 9.6875 19 8 16 C7.34 16 6.68 16 6 16 C6 15.34 6 14.68 6 14 C5.01 14.33 4.02 14.66 3 15 C2.9175 14.38125 2.835 13.7625 2.75 13.125 C2.18741541 10.81562433 2.18741541 10.81562433 -0.0625 9.75 C-0.701875 9.5025 -1.34125 9.255 -2 9 C-1.67 10.65 -1.34 12.3 -1 14 C-1.598125 13.79375 -2.19625 13.5875 -2.8125 13.375 C-5.28450846 12.69328085 -5.28450846 12.69328085 -8 15 C-6.51194289 9.19657726 -3.40902445 4.82409121 0 0 Z " fill="#2B1EE4" transform="translate(122,181)"/>
<path d="M0 0 C18.36453111 -0.21465036 35.06145039 -0.38464484 51 10 C51.495 10.99 51.495 10.99 52 12 C37.38461538 7.38461538 37.38461538 7.38461538 35 5 C33.66369883 4.70569228 32.31580778 4.46338167 30.96484375 4.24609375 C29.75151367 4.04790039 29.75151367 4.04790039 28.51367188 3.84570312 C27.66353516 3.71099609 26.81339844 3.57628906 25.9375 3.4375 C25.08349609 3.29892578 24.22949219 3.16035156 23.34960938 3.01757812 C21.23365549 2.67476995 19.11689882 2.33692384 17 2 C17 2.66 17 3.32 17 4 C16.44570312 4.24234375 15.89140625 4.4846875 15.3203125 4.734375 C14.23363281 5.23710937 14.23363281 5.23710937 13.125 5.75 C12.40570313 6.07484375 11.68640625 6.3996875 10.9453125 6.734375 C8.54821423 8.06051254 8.54821423 8.06051254 7 12 C3.535 6.06 3.535 6.06 0 0 Z " fill="#3305F4" transform="translate(199,214)"/>
<path d="M0 0 C1.03382813 0.08765625 2.06765625 0.1753125 3.1328125 0.265625 C5.875 0.75 5.875 0.75 8.875 2.75 C7.885 2.75 6.895 2.75 5.875 2.75 C5.875 3.41 5.875 4.07 5.875 4.75 C4.92238281 4.93175781 3.96976563 5.11351562 2.98828125 5.30078125 C1.73402344 5.55214844 0.47976562 5.80351562 -0.8125 6.0625 C-2.05386719 6.30613281 -3.29523438 6.54976562 -4.57421875 6.80078125 C-7.9543712 7.70438636 -10.16614706 8.96658179 -13.125 10.75 C-16.9375 10.4375 -16.9375 10.4375 -20.125 9.75 C-20.125 10.41 -20.125 11.07 -20.125 11.75 C-20.785 11.75 -21.445 11.75 -22.125 11.75 C-22.455 12.74 -22.785 13.73 -23.125 14.75 C-25.125 11.75 -25.125 11.75 -25.140625 9.7578125 C-23.54076859 6.59501944 -21.0690143 5.99284021 -17.875 4.625 C-16.73546875 4.12742188 -15.5959375 3.62984375 -14.421875 3.1171875 C-12.78992188 2.44042969 -12.78992188 2.44042969 -11.125 1.75 C-10.28710938 1.35554687 -9.44921875 0.96109375 -8.5859375 0.5546875 C-5.52610372 -0.44582958 -3.19557619 -0.30434059 0 0 Z " fill="#5C00FA" transform="translate(234.125,220.25)"/>
<path d="M0 0 C2.86021746 -0.24239131 5.19471125 -0.43359212 8 0 C10.75 2.375 10.75 2.375 13 5 C15.16620544 6.29519995 15.16620544 6.29519995 17 7 C17 8.32 17 9.64 17 11 C17.66 11 18.32 11 19 11 C19.33 10.34 19.66 9.68 20 9 C20 10.98 20 12.96 20 15 C14.75213478 12.11881909 10.14158124 9.20647764 5.9375 4.875 C4.0394568 3.038184 2.41114256 2.03334681 0 1 C0 0.67 0 0.34 0 0 Z " fill="#1B93D6" transform="translate(243,220)"/>
<path d="M0 0 C6.71638351 0 11.59599402 1.96709628 17.5 4.9375 C18.21865234 5.29779297 18.93730469 5.65808594 19.67773438 6.02929688 C24.86141271 8.72282543 24.86141271 8.72282543 26 11 C20.549011 9.27863505 15.29348336 7.14517256 10 5 C8.12535248 4.24911939 6.25036617 3.49908394 4.375 2.75 C2.91666667 2.16666667 1.45833333 1.58333333 0 1 C0 0.67 0 0.34 0 0 Z " fill="#2837E4" transform="translate(225,215)"/>
<path d="M0 0 C0.66 0.33 1.32 0.66 2 1 C2.268125 2.134375 2.53625 3.26875 2.8125 4.4375 C3.60878998 8.17259468 3.60878998 8.17259468 6.625 9.4375 C7.40875 9.623125 8.1925 9.80875 9 10 C8.67 10.99 8.34 11.98 8 13 C1.55836342 11.66305656 1.55836342 11.66305656 -1 8.625 C-2.08801562 5.768959 -2.14755393 4.77325532 -1 2 C-0.67 1.34 -0.34 0.68 0 0 Z " fill="#2738E8" transform="translate(132,163)"/>
<path d="M0 0 C0.12375 0.5775 0.2475 1.155 0.375 1.75 C1.04833476 4.17400512 1.55071094 5.92958705 3 8 C6.04199472 9.29231642 6.04199472 9.29231642 9 10 C9 10.66 9 11.32 9 12 C1.79107726 10.23177367 1.79107726 10.23177367 -1 7 C-1.66 7 -2.32 7 -3 7 C-1.125 2.25 -1.125 2.25 0 0 Z " fill="#1E8BCE" transform="translate(156,122)"/>
<path d="M0 0 C4.51478398 0.53115106 7.34666857 2.36620292 11 5 C11.33 4.34 11.66 3.68 12 3 C12 4.98 12 6.96 12 9 C7.18966896 6.45335415 3.67557852 4.00972202 0 0 Z " fill="#2360DC" transform="translate(251,226)"/>
<path d="M0 0 C0.66 0 1.32 0 2 0 C1.63118644 6.14689273 0.09949571 8.69027374 -4 13 C-4 9.58238295 -3.24061454 7.17045938 -2 4 C-1.34 3.67 -0.68 3.34 0 3 C0 2.01 0 1.02 0 0 Z " fill="#9B11EB" transform="translate(261,237)"/>
<path d="M0 0 C2.75 1.375 2.75 1.375 5 3 C4.01 3.495 4.01 3.495 3 4 C2.01 3.67 1.02 3.34 0 3 C0.33 3.99 0.66 4.98 1 6 C0.34 6.66 -0.32 7.32 -1 8 C-1.185625 7.071875 -1.185625 7.071875 -1.375 6.125 C-1.87197356 3.80879168 -1.87197356 3.80879168 -4 2 C-2.3125 0.8125 -2.3125 0.8125 0 0 Z " fill="#8B0BF0" transform="translate(258,232)"/>
<path d="M0 0 C1.8125 0.125 1.8125 0.125 4 1 C5.75 4.0625 5.75 4.0625 7 7 C4.20171644 6.61402985 3.1794116 6.19863427 1.25 4.0625 C0 2 0 2 0 0 Z " fill="#1F84DB" transform="translate(176,155)"/>
<path d="M0 0 C0.66 0 1.32 0 2 0 C2.33 0.66 2.66 1.32 3 2 C3.99 2.66 4.98 3.32 6 4 C3.36 4.33 0.72 4.66 -2 5 C-1.34 3.35 -0.68 1.7 0 0 Z " fill="#215AD6" transform="translate(188,210)"/>
</svg>
